<svg xmlns="http://www.w3.org/2000/svg" viewBox="0 0 24 24" fill="currentColor" width="24" height="24">
  <path d="M12 2C6.48 2 2 6.48 2 12v2c0 .55.45 1 1 1h1.6a7.503 7.503 0 0 1 14.8 0H21c.55 0 1-.45 1-1v-2c0-5.52-4.48-10-10-10zm-1 14h2v2h-2v-2zm1-12c3.31 0 6 2.69 6 6 0 1.04-.26 2.04-.76 2.92-.44.85-1.05 1.62-1.82 2.29L13 16h-2l-.42-.78c-.77-.67-1.38-1.44-1.82-2.29-.5-.88-.76-1.88-.76-2.92 0-3.31 2.69-6 6-6zm0 10c1.65 0 3-1.35 3-3 0-.78-.3-1.47-.77-2l-1.21 1.22c.02.03.04.06.07.09l1.01 1.01c.37-.47.88-.88 1.47-1.15V6h-2v2h-2V6H9v2H7V6H5v2c.59.27 1.1.68 1.47 1.15l1.01-1.01c.03-.03.05-.06.07-.09L8.77 7.01C8.3 7.53 8 8.22 8 9c0 1.65 1.35 3 3 3zm0-8c-2.21 0-4 1.79-4 4 0 .62.15 1.2.41 1.72.14.27.32.52.55.74l1.42-1.42c-.16-.18-.3-.38-.41-.6-.26-.55-.4-1.16-.4-1.84 0-1.65 1.35-3 3-3s3 1.35 3 3c0 .68-.14 1.29-.4 1.84-.11.22-.25.42-.41.6l1.42 1.42c.23-.22.41-.47.55-.74.26-.52.41-1.1.41-1.72 0-2.21-1.79-4-4-4zm0 6c-.83 0-1.5-.67-1.5-1.5S10.17 7 11 7s1.5.67 1.5 1.5S11.83 9 11 9zm0-2c-.28 0-.5.22-.5.5s.22.5.5.5.5-.22.5-.5-.22-.5-.5-.5z"/>
</svg>
